<?xml version="1.0" encoding="UTF-8" standalone="no"?>
<!-- Created with Inkscape (http://www.inkscape.org/) -->

<svg
   xmlns:dc="http://purl.org/dc/elements/1.1/"
   xmlns:cc="http://creativecommons.org/ns#"
   xmlns:rdf="http://www.w3.org/1999/02/22-rdf-syntax-ns#"
   xmlns:svg="http://www.w3.org/2000/svg"
   xmlns="http://www.w3.org/2000/svg"
   xmlns:xlink="http://www.w3.org/1999/xlink"
   xmlns:sodipodi="http://sodipodi.sourceforge.net/DTD/sodipodi-0.dtd"
   xmlns:inkscape="http://www.inkscape.org/namespaces/inkscape"
   width="210mm"
   height="297mm"
   viewBox="0 0 744.09448819 1052.3622047"
   id="svg2"
   version="1.1"
   inkscape:version="0.91 r"
   sodipodi:docname="drawing-2.svgz">
  <defs
     id="defs4">
    <linearGradient
       inkscape:collect="always"
       id="linearGradient4867">
      <stop
         style="stop-color:#ffcc00;stop-opacity:1;"
         offset="0"
         id="stop4869" />
      <stop
         style="stop-color:#ffcc00;stop-opacity:0;"
         offset="1"
         id="stop4871" />
    </linearGradient>
    <inkscape:path-effect
       effect="spiro"
       id="path-effect4767"
       is_visible="true" />
    <inkscape:path-effect
       effect="spiro"
       id="path-effect4452"
       is_visible="true" />
    <inkscape:path-effect
       effect="spiro"
       id="path-effect4423"
       is_visible="true" />
    <inkscape:path-effect
       effect="spiro"
       id="path-effect4419"
       is_visible="true" />
    <inkscape:path-effect
       effect="spiro"
       id="path-effect4415"
       is_visible="true" />
    <inkscape:path-effect
       effect="spiro"
       id="path-effect4411"
       is_visible="true" />
    <inkscape:path-effect
       effect="spiro"
       id="path-effect4405"
       is_visible="true" />
    <inkscape:path-effect
       effect="spiro"
       id="path-effect4401"
       is_visible="true" />
    <inkscape:path-effect
       effect="spiro"
       id="path-effect4397"
       is_visible="true" />
    <inkscape:path-effect
       effect="spiro"
       id="path-effect4393"
       is_visible="true" />
    <inkscape:path-effect
       effect="spiro"
       id="path-effect4389"
       is_visible="true" />
    <inkscape:path-effect
       effect="spiro"
       id="path-effect4385"
       is_visible="true" />
    <inkscape:path-effect
       effect="spiro"
       id="path-effect4381"
       is_visible="true" />
    <inkscape:path-effect
       effect="spiro"
       id="path-effect4377"
       is_visible="true" />
    <inkscape:path-effect
       effect="spiro"
       id="path-effect4373"
       is_visible="true" />
    <inkscape:path-effect
       effect="spiro"
       id="path-effect4369"
       is_visible="true" />
    <inkscape:path-effect
       effect="spiro"
       id="path-effect4365"
       is_visible="true" />
    <inkscape:path-effect
       effect="spiro"
       id="path-effect4361"
       is_visible="true" />
    <inkscape:path-effect
       effect="spiro"
       id="path-effect4353"
       is_visible="true" />
    <inkscape:path-effect
       effect="spiro"
       id="path-effect4349"
       is_visible="true" />
    <inkscape:path-effect
       effect="spiro"
       id="path-effect4345"
       is_visible="true" />
    <inkscape:path-effect
       effect="spiro"
       id="path-effect4341"
       is_visible="true" />
    <inkscape:path-effect
       effect="spiro"
       id="path-effect4337"
       is_visible="true" />
    <inkscape:path-effect
       effect="spiro"
       id="path-effect4333"
       is_visible="true" />
    <linearGradient
       inkscape:collect="always"
       xlink:href="#linearGradient4867"
       id="linearGradient4873"
       x1="564.0777"
       y1="723.23596"
       x2="576.69904"
       y2="617.41077"
       gradientUnits="userSpaceOnUse"
       gradientTransform="translate(-5.8252426,0.97087421)" />
  </defs>
  <sodipodi:namedview
     id="base"
     pagecolor="#ffffff"
     bordercolor="#666666"
     borderopacity="1.0"
     inkscape:pageopacity="0.0"
     inkscape:pageshadow="2"
     inkscape:zoom="0.39"
     inkscape:cx="520.70924"
     inkscape:cy="352.44577"
     inkscape:document-units="px"
     inkscape:current-layer="layer1"
     showgrid="false"
     inkscape:window-width="1366"
     inkscape:window-height="744"
     inkscape:window-x="0"
     inkscape:window-y="24"
     inkscape:window-maximized="1" />
  <metadata
     id="metadata7">
    <rdf:RDF>
      <cc:Work
         rdf:about="">
        <dc:format>image/svg+xml</dc:format>
        <dc:type
           rdf:resource="http://purl.org/dc/dcmitype/StillImage" />
        <dc:title></dc:title>
      </cc:Work>
    </rdf:RDF>
  </metadata>
  <g
     inkscape:label="Layer 1"
     inkscape:groupmode="layer"
     id="layer1">
    <ellipse
       style="opacity:0.76799999;fill:#ffcc00;fill-opacity:1;stroke:#ffff00;stroke-width:0;stroke-linecap:square;stroke-linejoin:miter;stroke-miterlimit:4;stroke-dasharray:none;stroke-opacity:1"
       id="path4136"
       cx="182.67354"
       cy="541.60956"
       rx="157.74681"
       ry="157.08701"
       inkscape:export-xdpi="90"
       inkscape:export-ydpi="90" />
    <ellipse
       style="opacity:1;fill:#000000;fill-opacity:1;stroke:#fffff5;stroke-width:5.91507387;stroke-linecap:square;stroke-linejoin:miter;stroke-miterlimit:4;stroke-dasharray:none;stroke-opacity:1"
       id="path4138"
       cx="123.12287"
       cy="525.83435"
       rx="46.988415"
       ry="47.458305"
       inkscape:export-xdpi="90"
       inkscape:export-ydpi="90" />
    <ellipse
       style="opacity:1;fill:#ffffff;fill-opacity:1;stroke:#ffff00;stroke-width:0;stroke-linecap:square;stroke-linejoin:miter;stroke-miterlimit:4;stroke-dasharray:none;stroke-opacity:1"
       id="path4138-3"
       cx="133.19185"
       cy="511.57791"
       rx="21.576315"
       ry="21.356237"
       inkscape:export-xdpi="90"
       inkscape:export-ydpi="90" />
    <ellipse
       style="opacity:1;fill:#ffffff;fill-opacity:1;stroke:#ffff00;stroke-width:0;stroke-linecap:square;stroke-linejoin:miter;stroke-miterlimit:4;stroke-dasharray:none;stroke-opacity:1"
       id="path4138-3-6"
       cx="95.562767"
       cy="529.04254"
       rx="9.5894756"
       ry="9.491663"
       inkscape:transform-center-x="2.9833793"
       inkscape:transform-center-y="-1.6874148"
       inkscape:export-xdpi="90"
       inkscape:export-ydpi="90" />
    <ellipse
       style="opacity:0.41699997;fill:#ff3c5c;fill-opacity:1;stroke:#ffff00;stroke-width:0;stroke-linecap:square;stroke-linejoin:miter;stroke-miterlimit:4;stroke-dasharray:none;stroke-opacity:1"
       id="path4199"
       cx="107.25378"
       cy="589.78802"
       rx="24.453157"
       ry="11.864576"
       inkscape:export-xdpi="90"
       inkscape:export-ydpi="90" />
    <path
       style="fill:#000000;fill-rule:evenodd;stroke:#000000;stroke-width:0;stroke-linecap:butt;stroke-linejoin:miter;stroke-miterlimit:4;stroke-dasharray:none;stroke-opacity:1"
       d="m 135.4504,421.14566 2.37349,21.68889 -75.094236,27.9995 c 14.55655,-18.03999 31.77646,-37.4316 72.720746,-49.68839 z"
       id="path4240"
       inkscape:connector-curvature="0"
       sodipodi:nodetypes="cccc"
       inkscape:export-xdpi="90"
       inkscape:export-ydpi="90" />
    <ellipse
       style="opacity:1;fill:#000000;fill-opacity:1;stroke:#fffff8;stroke-width:5.91507387;stroke-linecap:square;stroke-linejoin:miter;stroke-miterlimit:4;stroke-dasharray:none;stroke-opacity:1"
       id="path4138-0"
       cx="-242.2104"
       cy="529.21338"
       rx="46.988415"
       ry="47.458305"
       transform="scale(-1,1)"
       inkscape:export-xdpi="90"
       inkscape:export-ydpi="90" />
    <ellipse
       style="opacity:1;fill:#ffffff;fill-opacity:1;stroke:#ffff00;stroke-width:0;stroke-linecap:square;stroke-linejoin:miter;stroke-miterlimit:4;stroke-dasharray:none;stroke-opacity:1"
       id="path4138-3-9"
       cx="-232.14143"
       cy="514.95691"
       rx="21.576315"
       ry="21.356237"
       transform="scale(-1,1)"
       inkscape:export-xdpi="90"
       inkscape:export-ydpi="90" />
    <ellipse
       style="opacity:1;fill:#ffffff;fill-opacity:1;stroke:#ffff00;stroke-width:0;stroke-linecap:square;stroke-linejoin:miter;stroke-miterlimit:4;stroke-dasharray:none;stroke-opacity:1"
       id="path4138-3-6-3"
       cx="-269.77051"
       cy="532.42157"
       rx="9.5894756"
       ry="9.491663"
       inkscape:transform-center-x="2.9833936"
       inkscape:transform-center-y="-1.6874173"
       transform="scale(-1,1)"
       inkscape:export-xdpi="90"
       inkscape:export-ydpi="90" />
    <ellipse
       style="opacity:0.41699997;fill:#ff3c5c;fill-opacity:1;stroke:#ffff00;stroke-width:0;stroke-linecap:square;stroke-linejoin:miter;stroke-miterlimit:4;stroke-dasharray:none;stroke-opacity:1"
       id="path4199-6"
       cx="-258.07947"
       cy="593.16705"
       rx="24.453157"
       ry="11.864576"
       transform="scale(-1,1)"
       inkscape:export-xdpi="90"
       inkscape:export-ydpi="90" />
    <path
       style="fill:#000000;fill-rule:evenodd;stroke:#000000;stroke-width:0;stroke-linecap:butt;stroke-linejoin:miter;stroke-miterlimit:4;stroke-dasharray:none;stroke-opacity:1"
       d="m 229.07427,421.21148 -2.37349,21.68889 75.09425,27.99951 c -14.55656,-18.03999 -31.77646,-37.4316 -72.72076,-49.6884 z"
       id="path4240-6"
       inkscape:connector-curvature="0"
       sodipodi:nodetypes="cccc"
       inkscape:export-xdpi="90"
       inkscape:export-ydpi="90" />
    <path
       style="fill:none;fill-rule:evenodd;stroke:#000000;stroke-width:1.18301475;stroke-linecap:butt;stroke-linejoin:miter;stroke-miterlimit:4;stroke-dasharray:none;stroke-opacity:1"
       d="m 153.66274,638.18919 c -0.20405,-0.53908 -0.26439,-1.13182 -0.17315,-1.70096 0.0912,-0.56914 0.33382,-1.11332 0.69615,-1.56161 0.36233,-0.44829 0.84353,-0.79961 1.38087,-1.00819 0.53735,-0.20857 1.12956,-0.27389 1.69945,-0.18744 0.15094,0.0229 0.3006,0.0562 0.45289,0.0671 0.15228,0.0109 0.30992,-0.002 0.44794,-0.0671 0.0966,-0.0457 0.18023,-0.11552 0.25278,-0.19398 0.0726,-0.0785 0.13478,-0.16578 0.19686,-0.25277 0.0621,-0.087 0.12449,-0.17418 0.19734,-0.25237 0.0728,-0.0782 0.15689,-0.14757 0.25385,-0.19252 0.13835,-0.0641 0.29589,-0.0754 0.44796,-0.064 0.15207,0.0114 0.30167,0.0441 0.45286,0.064 0.59612,0.0785 1.202,-0.0438 1.80167,0 0.56189,0.0411 1.11184,0.2307 1.58146,0.54193 0.46962,0.31123 0.85808,0.74308 1.12102,1.24135 0.15608,0.29576 0.26784,0.61241 0.39778,0.92055 0.12994,0.30814 0.28111,0.61258 0.50305,0.86273 0.28116,0.3169 0.66789,0.53778 0.90083,0.89164 0.13219,0.20082 0.20724,0.43444 0.2533,0.67041 0.0461,0.23597 0.0645,0.47629 0.0926,0.71507 0.0281,0.23877 0.0664,0.47829 0.14999,0.7037 0.0836,0.22541 0.21556,0.43764 0.40494,0.58575 0.16133,0.12616 0.36101,0.20184 0.56521,0.21748 0.20421,0.0156 0.4122,-0.0284 0.59407,-0.12254 0.18187,-0.0942 0.3373,-0.23789 0.44814,-0.41011 0.11083,-0.17221 0.17712,-0.37239 0.19424,-0.57647 0.0249,-0.29678 -0.0521,-0.59841 0,-0.89165 0.0378,-0.21311 0.14299,-0.4105 0.28005,-0.57802 0.13706,-0.16752 0.30538,-0.30697 0.48161,-0.43264 0.35245,-0.25133 0.74515,-0.45568 1.04,-0.77262 0.22808,-0.24516 0.38658,-0.54672 0.51843,-0.85452 0.13185,-0.3078 0.23986,-0.62576 0.38239,-0.92876 0.16433,-0.34935 0.38523,-0.68844 0.71369,-0.89133 0.16423,-0.10145 0.35339,-0.16574 0.54637,-0.17066 0.19297,-0.005 0.38931,0.0517 0.54161,0.17035 0.13411,0.10445 0.22962,0.25194 0.29652,0.40821 0.0669,0.15628 0.10718,0.32239 0.14777,0.48746 0.0406,0.16508 0.0821,0.33099 0.15131,0.48627 0.0692,0.15527 0.16811,0.30086 0.30523,0.40134 0.10115,0.0741 0.22071,0.12169 0.3442,0.14348 0.12349,0.0218 0.25083,0.0182 0.37419,-0.004 0.2467,-0.0451 0.47406,-0.16411 0.68325,-0.30244 0.20919,-0.13834 0.40426,-0.29721 0.61428,-0.43428 0.21002,-0.13707 0.43908,-0.25345 0.68656,-0.29406 0.27702,-0.0455 0.56463,0.007 0.82203,0.1194 0.25741,0.11201 0.48668,0.28105 0.69381,0.47052 0.41428,0.37894 0.74789,0.84306 1.18665,1.19336 0.52416,0.41849 1.1709,0.653 1.72672,1.02842 0.27791,0.18771 0.53511,0.41372 0.71929,0.69398 0.18418,0.28026 0.29133,0.61898 0.25648,0.95253 -0.0159,0.15171 -0.0602,0.29922 -0.0783,0.45068 -0.009,0.0757 -0.0115,0.15267 -3.7e-4,0.22813 0.0111,0.0755 0.0361,0.14955 0.0787,0.21283 0.0476,0.0707 0.11648,0.12635 0.19428,0.16119 0.0778,0.0348 0.16424,0.0492 0.24938,0.0448 0.17027,-0.009 0.33105,-0.0913 0.45716,-0.20601 0.1245,-0.11328 0.21845,-0.25694 0.29102,-0.40882 0.0726,-0.15188 0.12473,-0.31255 0.17519,-0.47314 0.10092,-0.32117 0.20308,-0.65694 0.43462,-0.90133 0.1481,-0.15632 0.33902,-0.26379 0.51195,-0.3921 0.0865,-0.0642 0.16926,-0.13429 0.23836,-0.21686 0.0691,-0.0826 0.12432,-0.17825 0.15052,-0.28268 0.0364,-0.14517 0.0154,-0.29776 -0.004,-0.44611 -0.0198,-0.14836 -0.0377,-0.30191 0.004,-0.44553 0.0302,-0.10299 0.0902,-0.19548 0.16302,-0.27435 0.0728,-0.0789 0.15826,-0.14495 0.24593,-0.20686 0.17534,-0.12383 0.36573,-0.23677 0.49189,-0.41043 0.10536,-0.14503 0.15758,-0.32214 0.18768,-0.49885 0.0301,-0.17672 0.04,-0.35643 0.0705,-0.53307 0.0306,-0.17664 0.0837,-0.35357 0.19016,-0.49781 0.0532,-0.0721 0.11951,-0.13517 0.19687,-0.18044 0.0774,-0.0453 0.16598,-0.0724 0.25561,-0.0731 0.11058,-9.3e-4 0.21926,0.0382 0.31147,0.0993 0.0922,0.0611 0.16889,0.14323 0.23444,0.2323 0.13108,0.17814 0.21994,0.38487 0.35492,0.56008 0.12936,0.16791 0.2969,0.30159 0.46,0.43695 0.1631,0.13537 0.32573,0.27671 0.44083,0.45469 0.18673,0.28873 0.2305,0.64321 0.32118,0.97488 0.0453,0.16584 0.10414,0.32984 0.19728,0.47435 0.0931,0.14451 0.22313,0.26924 0.38237,0.33405 0.14071,0.0573 0.29689,0.0654 0.44842,0.0545 0.15152,-0.0109 0.30118,-0.04 0.45241,-0.0545 0.59932,-0.0573 1.21089,0.11599 1.80166,0 0.33029,-0.0648 0.63671,-0.21743 0.92746,-0.387 0.29075,-0.16958 0.57118,-0.3581 0.8742,-0.50464 0.3035,-0.14677 0.626,-0.24964 0.93825,-0.37672 0.31225,-0.12708 0.61962,-0.28206 0.8634,-0.51492 0.15392,-0.14703 0.27858,-0.32135 0.4159,-0.48399 0.13732,-0.16264 0.29221,-0.31729 0.48493,-0.40765 0.16059,-0.0753 0.34186,-0.10232 0.5187,-0.0886 0.17683,0.0137 0.34933,0.0673 0.50838,0.14579 0.31811,0.15698 0.57844,0.40882 0.8218,0.66691 0.24335,0.25809 0.47791,0.52875 0.7644,0.73792 0.2865,0.20916 0.63688,0.35453 0.99004,0.32124 0.3226,-0.0304 0.61675,-0.20627 0.85336,-0.42766 0.2366,-0.22139 0.42576,-0.48783 0.61101,-0.75369 0.37049,-0.53171 0.77753,-1.03768 1.23812,-1.49357 l 0.90083,-0.89164 c 0.1515,-0.14995 0.31353,-0.28872 0.48146,-0.42002 0.084,-0.0656 0.16788,-0.13194 0.2424,-0.20814 0.0745,-0.0762 0.13981,-0.16359 0.17697,-0.26348 0.0554,-0.14881 0.0442,-0.31506 0.005,-0.46902 -0.0388,-0.15396 -0.1038,-0.29985 -0.15597,-0.4498 -0.0522,-0.14996 -0.0919,-0.30816 -0.0773,-0.46626 0.007,-0.0791 0.0285,-0.15728 0.0665,-0.22698 0.038,-0.0697 0.0932,-0.13066 0.16143,-0.17122 0.10836,-0.0644 0.24506,-0.0734 0.36542,-0.0359 0.12036,0.0375 0.22456,0.1184 0.30186,0.21797 0.15459,0.19914 0.20106,0.45959 0.23355,0.70959 0.11522,0.88667 0.11522,1.78825 0,2.67492"
       id="path4421"
       inkscape:path-effect="#path-effect4423"
       inkscape:original-d="m 153.66274,638.18919 c 2.09905,-0.0443 1.8836,-3.60711 3.60332,-4.4582 0.26857,-0.13292 0.63225,0.13292 0.90083,0 0.37982,-0.18798 0.52101,-0.70366 0.90083,-0.89164 0.26857,-0.13292 0.60055,0 0.90082,0 0.60056,0 1.21904,-0.14417 1.80167,0 0.87517,0.21656 2.15305,0.96755 2.70248,1.78328 0.37245,0.55298 0.52838,1.23031 0.90083,1.78328 0.23556,0.34973 0.71092,0.5157 0.90083,0.89164 0.49528,0.98046 -0.86754,1.79976 0.90083,2.67493 0.74554,0.36897 1.50867,-0.31164 1.80166,-0.89164 0.13428,-0.26584 -0.13429,-0.62581 0,-0.89165 0.60772,-1.20305 1.19393,-0.58022 1.80166,-1.78328 1.32548,-2.62393 -2.08685,1.17392 0.90082,-1.78328 0.1759,-0.1741 1.13892,-1.54762 1.80167,-0.89164 1.86384,1.84484 -2.84821,-0.0721 0.90083,1.78328 0.92583,0.4582 2.07771,-0.89164 2.70248,-0.89164 1.09074,0 2.01673,1.10451 2.70249,1.78328 0.47425,0.46942 2.46193,2.19872 2.70249,2.67493 0.13429,0.26583 -0.21233,0.68147 0,0.89164 0.21232,0.21016 0.6885,0.21016 0.90082,0 0.47479,-0.46994 0.52839,-1.23031 0.90083,-1.78329 0.23556,-0.34973 0.71092,-0.51568 0.90083,-0.89164 0.13429,-0.26583 -0.13428,-0.6258 0,-0.89164 0.18992,-0.37594 0.66528,-0.54191 0.90084,-0.89164 0.37244,-0.55297 0.30027,-1.48606 0.90082,-1.78328 0.37982,-0.18798 0.60056,0.59443 0.90083,0.89164 0.30028,0.29722 0.71092,0.5157 0.90083,0.89164 0.62128,1.22989 -1.09095,0.79755 0.90083,1.78328 0.26857,0.13292 0.60055,0 0.90083,0 0.60055,0 1.21904,0.14418 1.80166,0 0.65139,-0.16118 1.2011,-0.59442 1.80166,-0.89164 0.60055,-0.29721 1.24299,-0.52299 1.80165,-0.89164 0.35334,-0.23315 0.47618,-0.89164 0.90083,-0.89164 1.51472,0 2.39471,2.38143 3.60332,1.78328 0.48112,-0.2381 2.22823,-2.2055 2.70249,-2.67492 0.30028,-0.29721 0.60055,-0.59442 0.90083,-0.89164 0.30028,-0.29722 0.76654,-0.49289 0.90083,-0.89164 0.18991,-0.56392 -0.42466,-1.36296 0,-1.78328 0.30027,-0.29722 0.71092,0.51569 0.90083,0.89164 0.13708,0.27135 0,2.27337 0,2.67492"
       inkscape:connector-curvature="0"
       inkscape:export-xdpi="90"
       inkscape:export-ydpi="90" />
    <ellipse
       style="opacity:0.76799999;fill:#ffcc00;fill-opacity:1;stroke:#ffff00;stroke-width:0;stroke-linecap:square;stroke-linejoin:miter;stroke-miterlimit:4;stroke-dasharray:none;stroke-opacity:1"
       id="path4136-2"
       cx="195.45454"
       cy="891.7561"
       rx="157.74681"
       ry="157.08701"
       inkscape:export-xdpi="90"
       inkscape:export-ydpi="90" />
    <path
       sodipodi:type="spiral"
       style="fill:none;fill-rule:evenodd;stroke:#000000;stroke-width:1px;stroke-linecap:butt;stroke-linejoin:miter;stroke-opacity:1"
       id="path4477-8"
       sodipodi:cx="242.42424"
       sodipodi:cy="749.33191"
       sodipodi:expansion="1"
       sodipodi:revolution="3"
       sodipodi:radius="37.267799"
       sodipodi:argument="-17.742407"
       sodipodi:t0="0"
       d="m 242.42424,749.33191 c 0.83564,1.67128 -1.84058,1.95098 -2.77778,1.38889 -2.53975,-1.52323 -1.80963,-5.18332 0,-6.94445 3.23701,-3.15025 8.49671,-1.89247 11.11111,1.3889 3.83675,4.81553 1.99362,11.86077 -2.77778,15.27777 -6.35952,4.55433 -15.24358,2.1035 -19.44444,-4.16667 -5.28636,-7.89037 -2.21811,-18.6355 5.55556,-23.61111 9.41496,-6.02613 22.0326,-2.33548 27.77778,6.94445 6.7705,10.93608 2.45459,25.43292 -8.33335,31.94445 -12.4551,7.51781 -28.83539,2.57487 -36.1111,-9.72224 -8.26714,-13.97276 -2.69597,-32.23938 11.11112,-40.27777 15.48947,-9.01787 35.64447,-2.81765 44.44444,12.50001 9.76964,17.00551 2.93977,39.05039 -13.88891,48.61111"
       transform="matrix(-0.81609552,-1.1651806,-1.1328555,0.83938205,1179.8411,528.48519)"
       inkscape:export-xdpi="90"
       inkscape:export-ydpi="90" />
    <path
       sodipodi:type="spiral"
       style="fill:none;fill-rule:evenodd;stroke:#000000;stroke-width:1px;stroke-linecap:butt;stroke-linejoin:miter;stroke-opacity:1"
       id="path4477-8-9"
       sodipodi:cx="242.42424"
       sodipodi:cy="749.33191"
       sodipodi:expansion="1"
       sodipodi:revolution="3"
       sodipodi:radius="37.267799"
       sodipodi:argument="-17.742407"
       sodipodi:t0="0"
       d="m 242.42424,749.33191 c 0.83564,1.67128 -1.84058,1.95098 -2.77778,1.38889 -2.53975,-1.52323 -1.80963,-5.18332 0,-6.94445 3.23701,-3.15025 8.49671,-1.89247 11.11111,1.3889 3.83675,4.81553 1.99362,11.86077 -2.77778,15.27777 -6.35952,4.55433 -15.24358,2.1035 -19.44444,-4.16667 -5.28636,-7.89037 -2.21811,-18.6355 5.55556,-23.61111 9.41496,-6.02613 22.0326,-2.33548 27.77778,6.94445 6.7705,10.93608 2.45459,25.43292 -8.33335,31.94445 -12.4551,7.51781 -28.83539,2.57487 -36.1111,-9.72224 -8.26714,-13.97276 -2.69597,-32.23938 11.11112,-40.27777 15.48947,-9.01787 35.64447,-2.81765 44.44444,12.50001 9.76964,17.00551 2.93977,39.05039 -13.88891,48.61111"
       transform="matrix(0.81609552,-1.1651806,1.1328555,0.83938205,-790.44714,531.51551)"
       inkscape:export-xdpi="90"
       inkscape:export-ydpi="90" />
    <ellipse
       style="opacity:1;fill:#000000;fill-opacity:1;stroke:#000000;stroke-width:0;stroke-linecap:square;stroke-linejoin:miter;stroke-miterlimit:4;stroke-dasharray:none;stroke-opacity:1"
       id="path4524"
       cx="196.21211"
       cy="984.18036"
       rx="28.030304"
       ry="22.727272"
       inkscape:export-xdpi="90"
       inkscape:export-ydpi="90" />
    <ellipse
       style="opacity:1;fill:#6699ff;fill-opacity:1;stroke:#000000;stroke-width:0;stroke-linecap:square;stroke-linejoin:miter;stroke-miterlimit:4;stroke-dasharray:none;stroke-opacity:1"
       id="path4526"
       cx="210.60606"
       cy="1017.5137"
       rx="4.5454545"
       ry="21.212122"
       inkscape:export-xdpi="90"
       inkscape:export-ydpi="90" />
    <ellipse
       style="opacity:0.76799999;fill:#ffcc00;fill-opacity:1;stroke:#ffff00;stroke-width:0;stroke-linecap:square;stroke-linejoin:miter;stroke-miterlimit:4;stroke-dasharray:none;stroke-opacity:1"
       id="path4136-20"
       cx="169.69698"
       cy="197.45311"
       rx="157.74681"
       ry="157.08701"
       inkscape:export-xdpi="90"
       inkscape:export-ydpi="90" />
    <path
       style="fill:#000000;fill-rule:evenodd;stroke:#000000;stroke-width:0.71145719px;stroke-linecap:butt;stroke-linejoin:miter;stroke-opacity:1"
       d="m 51.982161,164.36741 c 0,0 20.453382,-32.39352 61.769209,-29.19884 41.31582,3.19469 48.66312,25.47536 48.66312,25.47536 -37.84877,-10.27035 -74.69779,-9.45326 -110.432329,3.72348 z"
       id="path4545"
       inkscape:connector-curvature="0"
       sodipodi:nodetypes="cscc"
       inkscape:export-xdpi="90"
       inkscape:export-ydpi="90" />
    <path
       style="fill:#000000;fill-rule:evenodd;stroke:#000000;stroke-width:0.71145719px;stroke-linecap:butt;stroke-linejoin:miter;stroke-opacity:1"
       d="m 297.48263,165.38686 c 0,0 -20.45338,-32.39352 -61.7692,-29.19884 -41.31583,3.19469 -48.66313,25.47536 -48.66313,25.47536 37.84878,-10.27035 74.69779,-9.45326 110.43233,3.72348 z"
       id="path4545-3"
       inkscape:connector-curvature="0"
       sodipodi:nodetypes="cscc"
       inkscape:export-xdpi="90"
       inkscape:export-ydpi="90" />
    <path
       style="fill:#000000;fill-rule:evenodd;stroke:#000000;stroke-width:0.71145719px;stroke-linecap:butt;stroke-linejoin:miter;stroke-opacity:1"
       d="m 123.18403,249.45876 c 0,0 20.45339,32.39352 61.76922,29.19884 41.31582,-3.19469 48.66312,-25.47536 48.66312,-25.47536 -34.41252,24.01533 -70.08962,27.88597 -110.43234,-3.72348 z"
       id="path4545-5"
       inkscape:connector-curvature="0"
       sodipodi:nodetypes="cscc"
       inkscape:export-xdpi="90"
       inkscape:export-ydpi="90" />
    <path
       style="fill:#cc0000;fill-rule:evenodd;stroke:#000000;stroke-width:0;stroke-linecap:butt;stroke-linejoin:miter;stroke-miterlimit:4;stroke-dasharray:none;stroke-opacity:1"
       d="m 139.49986,264.43288 c -1.49488,-1.75557 -18.1703,11.12123 -12.27951,26.36437 3.32991,8.61655 11.55417,9.79905 11.55417,9.79905 0,0 8.47494,1.12486 12.49346,-5.45927 4.01852,-6.58413 9.74142,-18.75849 9.74142,-18.75849 -7.65967,-2.34713 -15.35595,-4.57215 -21.50954,-11.94566 z"
       id="path4611"
       inkscape:connector-curvature="0"
       sodipodi:nodetypes="cscscc"
       inkscape:export-xdpi="90"
       inkscape:export-ydpi="90" />
    <ellipse
       style="opacity:0.76799999;fill:#ffcc00;fill-opacity:1;stroke:#ffff00;stroke-width:0;stroke-linecap:square;stroke-linejoin:miter;stroke-miterlimit:4;stroke-dasharray:none;stroke-opacity:1"
       id="path4136-20-9"
       cx="545.41364"
       cy="197.32515"
       rx="157.74681"
       ry="157.08701"
       inkscape:export-xdpi="90"
       inkscape:export-ydpi="90" />
    <ellipse
       style="opacity:1;fill:#000000;fill-opacity:1;stroke:#000000;stroke-width:0;stroke-linecap:square;stroke-linejoin:miter;stroke-miterlimit:4;stroke-dasharray:none;stroke-opacity:1"
       id="path4631"
       cx="490.38947"
       cy="160.45421"
       rx="22.626329"
       ry="23.817188"
       inkscape:export-xdpi="90"
       inkscape:export-ydpi="90" />
    <ellipse
       style="opacity:1;fill:#000000;fill-opacity:1;stroke:#000000;stroke-width:0;stroke-linecap:square;stroke-linejoin:miter;stroke-miterlimit:4;stroke-dasharray:none;stroke-opacity:1"
       id="path4631-2"
       cx="612.57489"
       cy="160.45421"
       rx="22.626329"
       ry="23.817188"
       inkscape:export-xdpi="90"
       inkscape:export-ydpi="90" />
    <ellipse
       style="opacity:1;fill:#cc571d;fill-opacity:1;stroke:#d37445;stroke-width:0;stroke-linecap:square;stroke-linejoin:miter;stroke-miterlimit:4;stroke-dasharray:none;stroke-opacity:1"
       id="path4684"
       cx="553.79535"
       cy="266.39499"
       rx="30.962345"
       ry="26.198906"
       inkscape:export-xdpi="90"
       inkscape:export-ydpi="90" />
    <ellipse
       style="opacity:0.76799999;fill:#ffcc00;fill-opacity:1;stroke:#ffff00;stroke-width:0;stroke-linecap:square;stroke-linejoin:miter;stroke-miterlimit:4;stroke-dasharray:none;stroke-opacity:1"
       id="path4136-20-9-9"
       cx="554.94049"
       cy="535.52924"
       rx="157.74681"
       ry="157.08701"
       inkscape:export-xdpi="90"
       inkscape:export-ydpi="90" />
    <ellipse
       style="opacity:1;fill:#000000;fill-opacity:1;stroke:#000000;stroke-width:0;stroke-linecap:square;stroke-linejoin:miter;stroke-miterlimit:4;stroke-dasharray:none;stroke-opacity:1"
       id="path4631-7"
       cx="500.16095"
       cy="506.94861"
       rx="22.626329"
       ry="23.817188"
       inkscape:export-xdpi="90"
       inkscape:export-ydpi="90" />
    <ellipse
       style="opacity:1;fill:#000000;fill-opacity:1;stroke:#000000;stroke-width:0;stroke-linecap:square;stroke-linejoin:miter;stroke-miterlimit:4;stroke-dasharray:none;stroke-opacity:1"
       id="path4631-7-3"
       cx="619.72003"
       cy="509.33032"
       rx="22.626329"
       ry="23.817188"
       inkscape:export-xdpi="90"
       inkscape:export-ydpi="90" />
    <ellipse
       style="opacity:1;fill:#ffffff;fill-opacity:1;stroke:#d37445;stroke-width:0;stroke-linecap:square;stroke-linejoin:miter;stroke-miterlimit:4;stroke-dasharray:none;stroke-opacity:1"
       id="path4733"
       ry="28.580626"
       rx="9.5268764"
       cy="556.58295"
       cx="681.17157"
       inkscape:export-xdpi="90"
       inkscape:export-ydpi="90" />
    <ellipse
       style="opacity:0.76799999;fill:url(#linearGradient4873);fill-opacity:1;stroke:#ffff00;stroke-width:0;stroke-linecap:square;stroke-linejoin:miter;stroke-miterlimit:4;stroke-dasharray:none;stroke-opacity:1"
       id="path4136-20-9-9-6"
       cx="556.99524"
       cy="877.69214"
       rx="157.74681"
       ry="157.08701"
       inkscape:export-xdpi="90"
       inkscape:export-ydpi="90" />
    <path
       style="fill:#000000;fill-rule:evenodd;stroke:#000000;stroke-width:0;stroke-linecap:butt;stroke-linejoin:miter;stroke-miterlimit:4;stroke-dasharray:none;stroke-opacity:1"
       d="m 485.99577,599.06045 152.79479,0 0,4.34634 c -39.73742,-0.52955 -82.75561,1.33425 -150.33036,0 z"
       id="path4731-3"
       inkscape:connector-curvature="0"
       sodipodi:nodetypes="ccccc"
       inkscape:export-xdpi="90"
       inkscape:export-ydpi="90" />
    <ellipse
       style="opacity:0.87000002;fill:#ffffff;fill-opacity:1;stroke:#ff8d00;stroke-width:0;stroke-linecap:square;stroke-linejoin:miter;stroke-miterlimit:4;stroke-dasharray:none;stroke-opacity:1"
       id="path5068"
       cx="488.05829"
       cy="847.50787"
       rx="47.572819"
       ry="48.54369"
       inkscape:export-xdpi="90"
       inkscape:export-ydpi="90" />
    <ellipse
       style="opacity:0.87000002;fill:#000000;fill-opacity:1;stroke:#ff8d00;stroke-width:0;stroke-linecap:square;stroke-linejoin:miter;stroke-miterlimit:4;stroke-dasharray:none;stroke-opacity:1"
       id="path5068-0"
       cx="492.48547"
       cy="847.99329"
       rx="20.873789"
       ry="21.84466"
       inkscape:export-xdpi="90"
       inkscape:export-ydpi="90" />
    <ellipse
       style="opacity:0.87000002;fill:#ffffff;fill-opacity:1;stroke:#ff8d00;stroke-width:0;stroke-linecap:square;stroke-linejoin:miter;stroke-miterlimit:4;stroke-dasharray:none;stroke-opacity:1"
       id="path5068-6"
       cx="634.71844"
       cy="846.59521"
       rx="47.572819"
       ry="48.54369"
       inkscape:export-xdpi="90"
       inkscape:export-ydpi="90" />
    <ellipse
       style="opacity:0.87000002;fill:#000000;fill-opacity:1;stroke:#000000;stroke-width:0;stroke-linecap:square;stroke-linejoin:miter;stroke-miterlimit:4;stroke-dasharray:none;stroke-opacity:1"
       id="path5136"
       cx="567.41742"
       cy="944.1098"
       rx="36.407768"
       ry="32.524273"
       inkscape:export-xdpi="90"
       inkscape:export-ydpi="90" />
    <ellipse
       style="opacity:1;fill:#cc0000;fill-opacity:1;stroke:#000000;stroke-width:0;stroke-linecap:square;stroke-linejoin:miter;stroke-miterlimit:4;stroke-dasharray:none;stroke-opacity:1"
       id="path5140"
       cx="568.93201"
       cy="965.11945"
       rx="19.417477"
       ry="13.106796"
       inkscape:export-xdpi="90"
       inkscape:export-ydpi="90" />
    <ellipse
       style="opacity:0.87000002;fill:#000000;fill-opacity:1;stroke:#ff8d00;stroke-width:0;stroke-linecap:square;stroke-linejoin:miter;stroke-miterlimit:4;stroke-dasharray:none;stroke-opacity:1"
       id="path5068-0-7"
       cx="634.89319"
       cy="849.44958"
       rx="20.873789"
       ry="21.84466"
       inkscape:export-xdpi="90"
       inkscape:export-ydpi="90" />
    <path
       style="fill:#000000;fill-rule:evenodd;stroke:#000000;stroke-width:0.58093047px;stroke-linecap:butt;stroke-linejoin:miter;stroke-opacity:1"
       d="m 589.42136,779.25306 c 0,0 23.48867,-21.6443 55.02873,-10.86328 31.54001,10.78107 32.1163,29.9414 32.1163,29.9414 -21.32055,-25.93841 -48.29834,-36.13113 -87.14503,-19.07812 z"
       id="path4545-5-5"
       inkscape:connector-curvature="0"
       sodipodi:nodetypes="cscc"
       inkscape:export-xdpi="90"
       inkscape:export-ydpi="90" />
    <path
       style="fill:#000000;fill-rule:evenodd;stroke:#000000;stroke-width:0.58093047px;stroke-linecap:butt;stroke-linejoin:miter;stroke-opacity:1"
       d="m 530.95245,777.69694 c 0,0 -23.48867,-21.6443 -55.02873,-10.86328 -31.54001,10.78107 -32.1163,29.9414 -32.1163,29.9414 21.32055,-25.93841 48.29834,-36.13113 87.14503,-19.07812 z"
       id="path4545-5-5-6"
       inkscape:connector-curvature="0"
       sodipodi:nodetypes="cscc"
       inkscape:export-xdpi="90"
       inkscape:export-ydpi="90" />
  </g>
</svg>
